<?xml version="1.0" encoding="UTF-8"?>
<svg width="256px" height="256px" viewBox="0 0 256 256" version="1.1" xmlns="http://www.w3.org/2000/svg" preserveAspectRatio="xMidYMid">
    <g>
        <path d="M245.9696,168.5376 C232.9936,176.2496 145.1456,223.7056 130.5226,231.8526 C115.8996,239.9996 106.3566,239.6606 95.1366,233.4946 C83.9176,227.3296 -1.63140074e-06,180.9576 -1.63140074e-06,180.9576 L-1.63140074e-06,118.3996 C-1.63140074e-06,118.3996 82.3196,81.0756 96.4616,74.6116 C110.6026,68.1486 117.3876,68.0226 129.0966,73.6526 C140.8046,79.2826 235.9596,115.4736 245.9696,121.1996 C245.9696,121.1996 245.9696,160.8246 245.9696,168.5376" fill="#912626"></path>
        <path d="M245.9696,121.2 C232.9936,128.912 145.1456,176.368 130.5226,184.515 C115.8996,192.662 106.3566,192.323 95.1366,186.157 C83.9176,179.992 -1.63140074e-06,133.62 -1.63140074e-06,133.62 L-1.63140074e-06,71.0617 C-1.63140074e-06,71.0617 82.3196,33.7377 96.4616,27.2747 C110.6026,20.8107 117.3876,20.6847 129.0966,26.3147 C140.8046,31.9457 235.9596,68.1367 245.9696,73.8617 C245.9696,73.8617 245.9696,113.487 245.9696,121.2" fill="#C6302B"></path>
        <path d="M245.9696,73.8618 C232.9936,81.5738 145.1456,129.0298 130.5226,137.1768 C115.8996,145.3238 106.3566,144.9848 95.1366,138.8188 C83.9176,132.6538 -1.63140074e-06,86.2818 -1.63140074e-06,86.2818 L-1.63140074e-06,23.7238 C-1.63140074e-06,23.7238 82.3196,21.6128 96.4616,15.1488 C110.6026,8.6858 117.3876,4.9858 129.0966,10.6158 C140.8046,16.2458 235.9596,66.1488 245.9696,71.8748 C245.9696,71.8748 245.9696,66.1488 245.9696,73.8618" fill="#912626"></path>
        <path d="M159.2956,32.8908 C191.4876,32.8908 217.6166,47.8388 217.6166,66.4048 C217.6166,84.9718 191.4876,99.9188 159.2956,99.9188 C127.1036,99.9188 100.9746,84.9718 100.9746,66.4048 C100.9746,47.8388 127.1036,32.8908 159.2956,32.8908" fill="#FFFFFF"></path>
        <path d="M157.7276,47.5692 C163.7236,47.5692 168.5816,51.0642 168.5816,55.3552 C168.5816,59.6452 163.7236,63.1412 157.7276,63.1412 C151.7316,63.1412 146.8736,59.6452 146.8736,55.3552 C146.8736,51.0642 151.7316,47.5692 157.7276,47.5692" fill="#912626"></path>
        <path d="M174.0266,84.0908 C189.9306,84.0908 202.7956,81.3878 202.7956,78.0518 C202.7956,74.7158 189.9306,72.0128 174.0266,72.0128 C158.1226,72.0128 145.2566,74.7158 145.2566,78.0518 C145.2566,81.3878 158.1226,84.0908 174.0266,84.0908" fill="#912626"></path>
        <path d="M201.2096,66.3438 L196.6156,65.0768 L179.1696,65.9598 L189.2856,72.9238 L201.2096,66.3438" fill="#C6302B"></path>
        <path d="M112.0032,42.4048 L128.9442,33.4398 L135.8102,33.4398 L121.4642,40.8878 L127.6302,44.7608 L119.2162,49.5168 L112.0032,42.4048" fill="#C6302B"></path>
        <path d="M200.1026,57.1404 L176.3646,42.2234 L178.0956,49.4194 L169.2796,52.1224 L200.1026,57.1404" fill="#C6302B"></path>
        <path d="M142.843,118.9992 C151.984,115.6662 154.797,120.8622 146.633,124.6802 C138.47,128.4982 124.201,134.1772 115.06,137.5102 C105.919,140.8432 103.106,135.6472 111.269,131.8292 C119.432,128.0112 133.702,122.3322 142.843,118.9992" fill="#FFFFFF"></path>
        <path d="M139.5906,84.3246 C148.7316,80.9916 151.5446,86.1876 143.3816,90.0056 C135.2186,93.8236 120.9486,99.5026 111.8076,102.8356 C102.6666,106.1686 99.8536,100.9726 108.0166,97.1546 C116.1796,93.3366 130.4496,87.6576 139.5906,84.3246" fill="#FFFFFF"></path>
        <path d="M126.3786,147.1554 C143.3236,141.3954 145.4046,149.5744 131.8156,155.0794 C118.2266,160.5844 94.9266,168.4664 77.9816,174.2264 C61.0366,179.9864 58.9556,171.8084 72.5446,166.3024 C86.1336,160.7974 109.4336,152.9154 126.3786,147.1554" fill="#FFFFFF"></path>
    </g>
</svg> 